<?xml version="1.0" standalone="no"?>
<!DOCTYPE svg PUBLIC "-//W3C//DTD SVG 20010904//EN"
 "http://www.w3.org/TR/2001/REC-SVG-20010904/DTD/svg10.dtd">
<svg version="1.0" xmlns="http://www.w3.org/2000/svg"
 width="130.000000pt" height="67.000000pt" viewBox="0 0 130.000000 67.000000"
 preserveAspectRatio="xMidYMid meet">
<metadata>
Created by potrace 1.16, written by Peter Selinger 2001-2019
</metadata>
<g transform="translate(0.000000,67.000000) scale(0.100000,-0.100000)"
fill="#000000" stroke="none">
<path d="M403 643 c-21 -8 -16 -54 7 -60 19 -5 20 -14 20 -138 0 -125 -1 -134
-20 -140 -27 -9 -26 -51 1 -66 27 -14 88 -5 139 21 53 27 95 82 126 164 17 44
41 83 65 107 65 65 69 58 69 -92 0 -115 -2 -130 -16 -125 -9 3 -18 6 -20 6 -2
0 -4 48 -4 108 l-1 107 -24 -30 c-19 -23 -25 -42 -25 -79 0 -39 -3 -46 -13
-37 -11 8 -17 3 -31 -26 -17 -35 -16 -36 6 -60 38 -41 98 -67 153 -67 93 0
158 55 218 184 42 91 66 124 110 146 l27 15 0 -136 c0 -125 -2 -136 -17 -133
-16 3 -19 19 -23 113 -5 108 -5 110 -22 85 -12 -16 -18 -43 -18 -82 0 -57 -11
-75 -25 -40 -5 14 -10 10 -27 -22 l-20 -38 24 -25 c71 -77 236 -96 214 -26 -4
12 -16 23 -26 26 -19 5 -20 14 -20 140 0 126 1 135 20 140 49 13 30 67 -24 67
-94 0 -177 -61 -220 -162 -43 -102 -62 -132 -96 -155 -18 -13 -37 -23 -41 -23
-5 0 -9 59 -9 131 0 119 2 130 18 127 15 -3 17 -17 20 -107 3 -102 3 -103 22
-86 16 14 20 31 20 78 0 57 1 59 17 44 17 -14 19 -13 35 24 l16 39 -30 25
c-139 117 -287 67 -363 -123 -33 -81 -58 -118 -95 -137 -16 -8 -31 -15 -35
-15 -3 0 -5 59 -5 131 0 119 2 130 18 127 14 -3 18 -19 22 -108 l5 -105 24 30
c19 25 22 38 17 78 -5 46 5 63 19 30 5 -15 10 -11 27 21 l20 38 -29 30 c-49
53 -147 83 -200 61z"/>
</g>
</svg>
